<?xml version="1.0" encoding="UTF-8" standalone="no"?>
<!DOCTYPE svg PUBLIC "-//W3C//DTD SVG 1.1//EN"
 "http://www.w3.org/Graphics/SVG/1.1/DTD/svg11.dtd">
<!-- Generated by graphviz version 2.40.1 (20161225.0304)
 -->
<!-- Title: %0 Pages: 1 -->
<svg width="615pt" height="1526pt"
 viewBox="0.00 0.00 614.97 1526.00" xmlns="http://www.w3.org/2000/svg" xmlns:xlink="http://www.w3.org/1999/xlink">
<g id="graph0" class="graph" transform="scale(1 1) rotate(0) translate(144 1382)">
<title>%0</title>
<polygon fill="#ffffff" stroke="transparent" points="-144,144 -144,-1382 470.9706,-1382 470.9706,144 -144,144"/>
<!-- activities -->
<g id="node1" class="node">
<title>activities</title>
<polygon fill="#4477c9" stroke="transparent" points="239.9706,-1080 239.9706,-1238 321.9706,-1238 321.9706,-1080 239.9706,-1080"/>
<polygon fill="#add8e6" stroke="transparent" points="239.9706,-1220 239.9706,-1238 321.9706,-1238 321.9706,-1220 239.9706,-1220"/>
<polygon fill="none" stroke="#000000" points="239.9706,-1220 239.9706,-1238 321.9706,-1238 321.9706,-1220 239.9706,-1220"/>
<text text-anchor="start" x="262.4752" y="-1226.9" font-family="Times,serif" font-weight="bold" font-style="italic" font-size="9.00" fill="#000000"> activities </text>
<polygon fill="none" stroke="#000000" points="239.9706,-1200 239.9706,-1220 321.9706,-1220 321.9706,-1200 239.9706,-1200"/>
<text text-anchor="start" x="244.9706" y="-1206.9" font-family="Times,serif" font-size="9.00" fill="#000000">action: String</text>
<polygon fill="none" stroke="#000000" points="239.9706,-1180 239.9706,-1200 321.9706,-1200 321.9706,-1180 239.9706,-1180"/>
<text text-anchor="start" x="244.9706" y="-1186.9" font-family="Times,serif" font-size="9.00" fill="#000000">entity: String</text>
<polygon fill="none" stroke="#000000" points="239.9706,-1160 239.9706,-1180 321.9706,-1180 321.9706,-1160 239.9706,-1160"/>
<text text-anchor="start" x="244.9706" y="-1166.9" font-family="Times,serif" font-size="9.00" fill="#000000">entityId: ObjectId</text>
<polygon fill="none" stroke="#000000" points="239.9706,-1140 239.9706,-1160 321.9706,-1160 321.9706,-1140 239.9706,-1140"/>
<text text-anchor="start" x="244.6124" y="-1146.9" font-family="Times,serif" font-size="9.00" fill="#000000">createdBy: ObjectId</text>
<polygon fill="none" stroke="#000000" points="239.9706,-1120 239.9706,-1140 321.9706,-1140 321.9706,-1120 239.9706,-1120"/>
<text text-anchor="start" x="244.9706" y="-1126.9" font-family="Times,serif" font-size="9.00" fill="#000000">createdAt: Date</text>
<polygon fill="none" stroke="#000000" points="239.9706,-1100 239.9706,-1120 321.9706,-1120 321.9706,-1100 239.9706,-1100"/>
<text text-anchor="start" x="244.9706" y="-1106.9" font-family="Times,serif" font-size="9.00" fill="#000000">_id: ObjectId</text>
<polygon fill="none" stroke="#000000" points="239.9706,-1080 239.9706,-1100 321.9706,-1100 321.9706,-1080 239.9706,-1080"/>
<text text-anchor="start" x="244.9706" y="-1086.9" font-family="Times,serif" font-size="9.00" fill="#000000">__v: Number</text>
</g>
<!-- boards -->
<g id="node2" class="node">
<title>boards</title>
<polygon fill="#4477c9" stroke="transparent" points="234.9706,-750 234.9706,-1008 326.9706,-1008 326.9706,-750 234.9706,-750"/>
<polygon fill="#add8e6" stroke="transparent" points="234.9706,-990 234.9706,-1008 326.9706,-1008 326.9706,-990 234.9706,-990"/>
<polygon fill="none" stroke="#000000" points="234.9706,-990 234.9706,-1008 326.9706,-1008 326.9706,-990 234.9706,-990"/>
<text text-anchor="start" x="266.725" y="-996.9" font-family="Times,serif" font-weight="bold" font-style="italic" font-size="9.00" fill="#000000"> boards </text>
<polygon fill="none" stroke="#000000" points="234.9706,-970 234.9706,-990 326.9706,-990 326.9706,-970 234.9706,-970"/>
<text text-anchor="start" x="239.9706" y="-976.9" font-family="Times,serif" font-size="9.00" fill="#000000">boardName: String</text>
<polygon fill="none" stroke="#000000" points="234.9706,-950 234.9706,-970 326.9706,-970 326.9706,-950 234.9706,-950"/>
<text text-anchor="start" x="239.9706" y="-956.9" font-family="Times,serif" font-size="9.00" fill="#000000">description: String</text>
<polygon fill="none" stroke="#000000" points="234.9706,-930 234.9706,-950 326.9706,-950 326.9706,-930 234.9706,-930"/>
<text text-anchor="start" x="239.9706" y="-936.9" font-family="Times,serif" font-size="9.00" fill="#000000">visibility: String</text>
<polygon fill="none" stroke="#000000" points="234.9706,-910 234.9706,-930 326.9706,-930 326.9706,-910 234.9706,-910"/>
<text text-anchor="start" x="239.9706" y="-916.9" font-family="Times,serif" font-size="9.00" fill="#000000">closed: Boolean</text>
<polygon fill="none" stroke="#000000" points="234.9706,-890 234.9706,-910 326.9706,-910 326.9706,-890 234.9706,-890"/>
<text text-anchor="start" x="239.9706" y="-896.9" font-family="Times,serif" font-size="9.00" fill="#000000">members: Array</text>
<polygon fill="none" stroke="#000000" points="234.9706,-870 234.9706,-890 326.9706,-890 326.9706,-870 234.9706,-870"/>
<text text-anchor="start" x="239.9706" y="-876.9" font-family="Times,serif" font-size="9.00" fill="#000000">createdBy: ObjectId</text>
<polygon fill="none" stroke="#000000" points="234.9706,-850 234.9706,-870 326.9706,-870 326.9706,-850 234.9706,-850"/>
<text text-anchor="start" x="239.8604" y="-856.9" font-family="Times,serif" font-size="9.00" fill="#000000">adminMembers: Array</text>
<polygon fill="none" stroke="#000000" points="234.9706,-830 234.9706,-850 326.9706,-850 326.9706,-830 234.9706,-830"/>
<text text-anchor="start" x="239.9706" y="-836.9" font-family="Times,serif" font-size="9.00" fill="#000000">createdAt: Date</text>
<polygon fill="none" stroke="#000000" points="234.9706,-810 234.9706,-830 326.9706,-830 326.9706,-810 234.9706,-810"/>
<text text-anchor="start" x="239.9706" y="-816.9" font-family="Times,serif" font-size="9.00" fill="#000000">lists: Array</text>
<polygon fill="none" stroke="#000000" points="234.9706,-790 234.9706,-810 326.9706,-810 326.9706,-790 234.9706,-790"/>
<text text-anchor="start" x="239.9706" y="-796.9" font-family="Times,serif" font-size="9.00" fill="#000000">activityLog: Array</text>
<polygon fill="none" stroke="#000000" points="234.9706,-770 234.9706,-790 326.9706,-790 326.9706,-770 234.9706,-770"/>
<text text-anchor="start" x="239.9706" y="-776.9" font-family="Times,serif" font-size="9.00" fill="#000000">_id: ObjectId</text>
<polygon fill="none" stroke="#000000" points="234.9706,-750 234.9706,-770 326.9706,-770 326.9706,-750 234.9706,-750"/>
<text text-anchor="start" x="239.9706" y="-756.9" font-family="Times,serif" font-size="9.00" fill="#000000">__v: Number</text>
</g>
<!-- cards -->
<g id="node3" class="node">
<title>cards</title>
<polygon fill="#4477c9" stroke="transparent" points="239.9706,-420 239.9706,-678 321.9706,-678 321.9706,-420 239.9706,-420"/>
<polygon fill="#add8e6" stroke="transparent" points="239.9706,-660 239.9706,-678 321.9706,-678 321.9706,-660 239.9706,-660"/>
<polygon fill="none" stroke="#000000" points="239.9706,-660 239.9706,-678 321.9706,-678 321.9706,-660 239.9706,-660"/>
<text text-anchor="start" x="269.2274" y="-666.9" font-family="Times,serif" font-weight="bold" font-style="italic" font-size="9.00" fill="#000000"> cards </text>
<polygon fill="none" stroke="#000000" points="239.9706,-640 239.9706,-660 321.9706,-660 321.9706,-640 239.9706,-640"/>
<text text-anchor="start" x="244.9706" y="-646.9" font-family="Times,serif" font-size="9.00" fill="#000000">cardTitle: String</text>
<polygon fill="none" stroke="#000000" points="239.9706,-620 239.9706,-640 321.9706,-640 321.9706,-620 239.9706,-620"/>
<text text-anchor="start" x="244.9706" y="-626.9" font-family="Times,serif" font-size="9.00" fill="#000000">watching: Boolean</text>
<polygon fill="none" stroke="#000000" points="239.9706,-600 239.9706,-620 321.9706,-620 321.9706,-600 239.9706,-600"/>
<text text-anchor="start" x="244.9706" y="-606.9" font-family="Times,serif" font-size="9.00" fill="#000000">checklist: Number</text>
<polygon fill="none" stroke="#000000" points="239.9706,-580 239.9706,-600 321.9706,-600 321.9706,-580 239.9706,-580"/>
<text text-anchor="start" x="244.9706" y="-586.9" font-family="Times,serif" font-size="9.00" fill="#000000">labels: Array</text>
<polygon fill="none" stroke="#000000" points="239.9706,-560 239.9706,-580 321.9706,-580 321.9706,-560 239.9706,-560"/>
<text text-anchor="start" x="244.9706" y="-566.9" font-family="Times,serif" font-size="9.00" fill="#000000">dueDate: Date</text>
<polygon fill="none" stroke="#000000" points="239.9706,-540 239.9706,-560 321.9706,-560 321.9706,-540 239.9706,-540"/>
<text text-anchor="start" x="244.9706" y="-546.9" font-family="Times,serif" font-size="9.00" fill="#000000">assignTo: Array</text>
<polygon fill="none" stroke="#000000" points="239.9706,-520 239.9706,-540 321.9706,-540 321.9706,-520 239.9706,-520"/>
<text text-anchor="start" x="244.9706" y="-526.9" font-family="Times,serif" font-size="9.00" fill="#000000">description: String</text>
<polygon fill="none" stroke="#000000" points="239.9706,-500 239.9706,-520 321.9706,-520 321.9706,-500 239.9706,-500"/>
<text text-anchor="start" x="244.6124" y="-506.9" font-family="Times,serif" font-size="9.00" fill="#000000">createdBy: ObjectId</text>
<polygon fill="none" stroke="#000000" points="239.9706,-480 239.9706,-500 321.9706,-500 321.9706,-480 239.9706,-480"/>
<text text-anchor="start" x="244.9706" y="-486.9" font-family="Times,serif" font-size="9.00" fill="#000000">comments: Array</text>
<polygon fill="none" stroke="#000000" points="239.9706,-460 239.9706,-480 321.9706,-480 321.9706,-460 239.9706,-460"/>
<text text-anchor="start" x="244.9706" y="-466.9" font-family="Times,serif" font-size="9.00" fill="#000000">files: Array</text>
<polygon fill="none" stroke="#000000" points="239.9706,-440 239.9706,-460 321.9706,-460 321.9706,-440 239.9706,-440"/>
<text text-anchor="start" x="244.9706" y="-446.9" font-family="Times,serif" font-size="9.00" fill="#000000">_id: ObjectId</text>
<polygon fill="none" stroke="#000000" points="239.9706,-420 239.9706,-440 321.9706,-440 321.9706,-420 239.9706,-420"/>
<text text-anchor="start" x="244.9706" y="-426.9" font-family="Times,serif" font-size="9.00" fill="#000000">__v: Number</text>
</g>
<!-- comments -->
<g id="node4" class="node">
<title>comments</title>
<polygon fill="#4477c9" stroke="transparent" points="239.9706,-230 239.9706,-348 321.9706,-348 321.9706,-230 239.9706,-230"/>
<polygon fill="#add8e6" stroke="transparent" points="239.9706,-330 239.9706,-348 321.9706,-348 321.9706,-330 239.9706,-330"/>
<polygon fill="none" stroke="#000000" points="239.9706,-330 239.9706,-348 321.9706,-348 321.9706,-330 239.9706,-330"/>
<text text-anchor="start" x="260.2238" y="-336.9" font-family="Times,serif" font-weight="bold" font-style="italic" font-size="9.00" fill="#000000"> comments </text>
<polygon fill="none" stroke="#000000" points="239.9706,-310 239.9706,-330 321.9706,-330 321.9706,-310 239.9706,-310"/>
<text text-anchor="start" x="244.9706" y="-316.9" font-family="Times,serif" font-size="9.00" fill="#000000">text: String</text>
<polygon fill="none" stroke="#000000" points="239.9706,-290 239.9706,-310 321.9706,-310 321.9706,-290 239.9706,-290"/>
<text text-anchor="start" x="244.6124" y="-296.9" font-family="Times,serif" font-size="9.00" fill="#000000">createdBy: ObjectId</text>
<polygon fill="none" stroke="#000000" points="239.9706,-270 239.9706,-290 321.9706,-290 321.9706,-270 239.9706,-270"/>
<text text-anchor="start" x="244.9706" y="-276.9" font-family="Times,serif" font-size="9.00" fill="#000000">createdAt: Date</text>
<polygon fill="none" stroke="#000000" points="239.9706,-250 239.9706,-270 321.9706,-270 321.9706,-250 239.9706,-250"/>
<text text-anchor="start" x="244.9706" y="-256.9" font-family="Times,serif" font-size="9.00" fill="#000000">_id: ObjectId</text>
<polygon fill="none" stroke="#000000" points="239.9706,-230 239.9706,-250 321.9706,-250 321.9706,-230 239.9706,-230"/>
<text text-anchor="start" x="244.9706" y="-236.9" font-family="Times,serif" font-size="9.00" fill="#000000">__v: Number</text>
</g>
<!-- files -->
<g id="node5" class="node">
<title>files</title>
<polygon fill="#4477c9" stroke="transparent" points="246.4706,0 246.4706,-158 315.4706,-158 315.4706,0 246.4706,0"/>
<polygon fill="#add8e6" stroke="transparent" points="246.9706,-140 246.9706,-158 315.9706,-158 315.9706,-140 246.9706,-140"/>
<polygon fill="none" stroke="#000000" points="246.9706,-140 246.9706,-158 315.9706,-158 315.9706,-140 246.9706,-140"/>
<text text-anchor="start" x="271.4738" y="-146.9" font-family="Times,serif" font-weight="bold" font-style="italic" font-size="9.00" fill="#000000"> files </text>
<polygon fill="none" stroke="#000000" points="246.9706,-120 246.9706,-140 315.9706,-140 315.9706,-120 246.9706,-120"/>
<text text-anchor="start" x="251.9706" y="-126.9" font-family="Times,serif" font-size="9.00" fill="#000000">URL: String</text>
<polygon fill="none" stroke="#000000" points="246.9706,-100 246.9706,-120 315.9706,-120 315.9706,-100 246.9706,-100"/>
<text text-anchor="start" x="251.9706" y="-106.9" font-family="Times,serif" font-size="9.00" fill="#000000">owner: ObjectId</text>
<polygon fill="none" stroke="#000000" points="246.9706,-80 246.9706,-100 315.9706,-100 315.9706,-80 246.9706,-80"/>
<text text-anchor="start" x="251.9706" y="-86.9" font-family="Times,serif" font-size="9.00" fill="#000000">name: String</text>
<polygon fill="none" stroke="#000000" points="246.9706,-60 246.9706,-80 315.9706,-80 315.9706,-60 246.9706,-60"/>
<text text-anchor="start" x="251.9706" y="-66.9" font-family="Times,serif" font-size="9.00" fill="#000000">_id: ObjectId</text>
<polygon fill="none" stroke="#000000" points="246.9706,-40 246.9706,-60 315.9706,-60 315.9706,-40 246.9706,-40"/>
<text text-anchor="start" x="251.9706" y="-46.9" font-family="Times,serif" font-size="9.00" fill="#000000">createdAt: Date</text>
<polygon fill="none" stroke="#000000" points="246.9706,-20 246.9706,-40 315.9706,-40 315.9706,-20 246.9706,-20"/>
<text text-anchor="start" x="251.8561" y="-26.9" font-family="Times,serif" font-size="9.00" fill="#000000">updatedAt: Date</text>
<polygon fill="none" stroke="#000000" points="246.9706,0 246.9706,-20 315.9706,-20 315.9706,0 246.9706,0"/>
<text text-anchor="start" x="251.9706" y="-6.9" font-family="Times,serif" font-size="9.00" fill="#000000">__v: Number</text>
</g>
<!-- lists -->
<g id="node6" class="node">
<title>lists</title>
<polygon fill="#4477c9" stroke="transparent" points="4,-770 4,-868 68,-868 68,-770 4,-770"/>
<polygon fill="#add8e6" stroke="transparent" points="4,-850 4,-868 68,-868 68,-850 4,-850"/>
<polygon fill="none" stroke="#000000" points="4,-850 4,-868 68,-868 68,-850 4,-850"/>
<text text-anchor="start" x="26.4983" y="-856.9" font-family="Times,serif" font-weight="bold" font-style="italic" font-size="9.00" fill="#000000"> lists </text>
<polygon fill="none" stroke="#000000" points="4,-830 4,-850 68,-850 68,-830 4,-830"/>
<text text-anchor="start" x="8.6238" y="-836.9" font-family="Times,serif" font-size="9.00" fill="#000000">listTitle: String</text>
<polygon fill="none" stroke="#000000" points="4,-810 4,-830 68,-830 68,-810 4,-810"/>
<text text-anchor="start" x="9" y="-816.9" font-family="Times,serif" font-size="9.00" fill="#000000">cards: Array</text>
<polygon fill="none" stroke="#000000" points="4,-790 4,-810 68,-810 68,-790 4,-790"/>
<text text-anchor="start" x="9" y="-796.9" font-family="Times,serif" font-size="9.00" fill="#000000">_id: ObjectId</text>
<polygon fill="none" stroke="#000000" points="4,-770 4,-790 68,-790 68,-770 4,-770"/>
<text text-anchor="start" x="9" y="-776.9" font-family="Times,serif" font-size="9.00" fill="#000000">__v: Number</text>
</g>
<!-- users -->
<g id="node7" class="node">
<title>users</title>
<polygon fill="#4477c9" stroke="transparent" points="0,-440 0,-698 72,-698 72,-440 0,-440"/>
<polygon fill="#add8e6" stroke="transparent" points="0,-680 0,-698 72,-698 72,-680 0,-680"/>
<polygon fill="none" stroke="#000000" points="0,-680 0,-698 72,-698 72,-680 0,-680"/>
<text text-anchor="start" x="24.5043" y="-686.9" font-family="Times,serif" font-weight="bold" font-style="italic" font-size="9.00" fill="#000000"> users </text>
<polygon fill="none" stroke="#000000" points="0,-660 0,-680 72,-680 72,-660 0,-660"/>
<text text-anchor="start" x="5" y="-666.9" font-family="Times,serif" font-size="9.00" fill="#000000">username: String</text>
<polygon fill="none" stroke="#000000" points="0,-640 0,-660 72,-660 72,-640 0,-640"/>
<text text-anchor="start" x="5" y="-646.9" font-family="Times,serif" font-size="9.00" fill="#000000">password: String</text>
<polygon fill="none" stroke="#000000" points="0,-620 0,-640 72,-640 72,-620 0,-620"/>
<text text-anchor="start" x="5" y="-626.9" font-family="Times,serif" font-size="9.00" fill="#000000">email: String</text>
<polygon fill="none" stroke="#000000" points="0,-600 0,-620 72,-620 72,-600 0,-600"/>
<text text-anchor="start" x="4.6323" y="-606.9" font-family="Times,serif" font-size="9.00" fill="#000000">firstName: String</text>
<polygon fill="none" stroke="#000000" points="0,-580 0,-600 72,-600 72,-580 0,-580"/>
<text text-anchor="start" x="5" y="-586.9" font-family="Times,serif" font-size="9.00" fill="#000000">lastName: String</text>
<polygon fill="none" stroke="#000000" points="0,-560 0,-580 72,-580 72,-560 0,-560"/>
<text text-anchor="start" x="5" y="-566.9" font-family="Times,serif" font-size="9.00" fill="#000000">avatar: String</text>
<polygon fill="none" stroke="#000000" points="0,-540 0,-560 72,-560 72,-540 0,-540"/>
<text text-anchor="start" x="5" y="-546.9" font-family="Times,serif" font-size="9.00" fill="#000000">boards: Array</text>
<polygon fill="none" stroke="#000000" points="0,-520 0,-540 72,-540 72,-520 0,-520"/>
<text text-anchor="start" x="5" y="-526.9" font-family="Times,serif" font-size="9.00" fill="#000000">tokens: Array</text>
<polygon fill="none" stroke="#000000" points="0,-500 0,-520 72,-520 72,-500 0,-500"/>
<text text-anchor="start" x="5" y="-506.9" font-family="Times,serif" font-size="9.00" fill="#000000">_id: ObjectId</text>
<polygon fill="none" stroke="#000000" points="0,-480 0,-500 72,-500 72,-480 0,-480"/>
<text text-anchor="start" x="5" y="-486.9" font-family="Times,serif" font-size="9.00" fill="#000000">createdAt: Date</text>
<polygon fill="none" stroke="#000000" points="0,-460 0,-480 72,-480 72,-460 0,-460"/>
<text text-anchor="start" x="5" y="-466.9" font-family="Times,serif" font-size="9.00" fill="#000000">updatedAt: Date</text>
<polygon fill="none" stroke="#000000" points="0,-440 0,-460 72,-460 72,-440 0,-440"/>
<text text-anchor="start" x="5" y="-446.9" font-family="Times,serif" font-size="9.00" fill="#000000">__v: Number</text>
</g>
<!-- users&#45;&gt;activities -->
<g id="edge1" class="edge">
<title>users:8&#45;&gt;activities:3</title>
<path fill="none" stroke="#000000" stroke-dasharray="5,2" d="M72,-510C111.2046,-510 97.7211,-823.1669 108,-861 145.0214,-997.2631 98.7678,-1150 239.9706,-1150"/>
<text text-anchor="middle" x="153.4853" y="-1147.2" font-family="Times,serif" font-size="14.00" fill="#000000">users&#45;activities</text>
<text text-anchor="middle" x="234.9173" y="-1137.4" font-family="Times,serif" font-size="14.00" fill="#000000">N</text>
<text text-anchor="middle" x="75.5" y="-497.4" font-family="Times,serif" font-size="14.00" fill="#000000">1</text>
</g>
<!-- users&#45;&gt;boards -->
<g id="edge2" class="edge">
<title>users:8&#45;&gt;boards:5</title>
<path fill="none" stroke="#000000" stroke-dasharray="5,2" d="M72,-510C116.9223,-510 190.0483,-880 234.9706,-880"/>
<text text-anchor="middle" x="153.4853" y="-830.2" font-family="Times,serif" font-size="14.00" fill="#000000">users&#45;boards</text>
<text text-anchor="middle" x="229.9173" y="-867.4" font-family="Times,serif" font-size="14.00" fill="#000000">N</text>
<text text-anchor="middle" x="75.5" y="-514.2" font-family="Times,serif" font-size="14.00" fill="#000000">1</text>
</g>
<!-- users&#45;&gt;cards -->
<g id="edge3" class="edge">
<title>users:8&#45;&gt;cards:7</title>
<path fill="none" stroke="#000000" stroke-dasharray="5,2" d="M72,-510C146.6536,-510 165.317,-510 239.9706,-510"/>
<text text-anchor="middle" x="153.4853" y="-514.2" font-family="Times,serif" font-size="14.00" fill="#000000">users&#45;cards</text>
<text text-anchor="middle" x="234.9173" y="-497.4" font-family="Times,serif" font-size="14.00" fill="#000000">N</text>
<text text-anchor="middle" x="68.5" y="-514.2" font-family="Times,serif" font-size="14.00" fill="#000000">1</text>
</g>
<!-- users&#45;&gt;comments -->
<g id="edge4" class="edge">
<title>users:8&#45;&gt;comments:1</title>
<path fill="none" stroke="#000000" stroke-dasharray="5,2" d="M72,-510C86.9396,-510 225.031,-300 239.9706,-300"/>
<text text-anchor="middle" x="153.4853" y="-473.2" font-family="Times,serif" font-size="14.00" fill="#000000">users&#45;comments</text>
<text text-anchor="middle" x="234.9173" y="-287.4" font-family="Times,serif" font-size="14.00" fill="#000000">N</text>
<text text-anchor="middle" x="75.5" y="-514.2" font-family="Times,serif" font-size="14.00" fill="#000000">1</text>
</g>
<!-- users&#45;&gt;files -->
<g id="edge5" class="edge">
<title>users:8&#45;&gt;files:1</title>
<path fill="none" stroke="#000000" stroke-dasharray="5,2" d="M72,-510C116.0219,-510 91.3034,-355.9327 108,-315.2 149.7763,-213.2831 136.8238,-110 246.9706,-110"/>
<text text-anchor="middle" x="153.4853" y="-319.2" font-family="Times,serif" font-size="14.00" fill="#000000">users&#45;files</text>
<text text-anchor="middle" x="241.9173" y="-97.4" font-family="Times,serif" font-size="14.00" fill="#000000">N</text>
<text text-anchor="middle" x="68.5" y="-497.4" font-family="Times,serif" font-size="14.00" fill="#000000">1</text>
</g>
</g>
</svg>
